<svg width="18" height="16" viewBox="0 0 18 16" fill="none" xmlns="http://www.w3.org/2000/svg">
<path d="M12.75 0.5C11.3 0.5 9.90829 1.175 8.99996 2.24167C8.09163 1.175 6.69996 0.5 5.24996 0.5C2.68329 0.5 0.666626 2.51667 0.666626 5.08333C0.666626 8.23333 3.49996 10.8 7.79163 14.7L8.99996 15.7917L10.2083 14.6917C14.5 10.8 17.3333 8.23333 17.3333 5.08333C17.3333 2.51667 15.3166 0.5 12.75 0.5ZM9.08329 13.4583L8.99996 13.5417L8.91663 13.4583C4.94996 9.86667 2.33329 7.49167 2.33329 5.08333C2.33329 3.41667 3.58329 2.16667 5.24996 2.16667C6.53329 2.16667 7.78329 2.99167 8.22496 4.13333H9.78329C10.2166 2.99167 11.4666 2.16667 12.75 2.16667C14.4166 2.16667 15.6666 3.41667 15.6666 5.08333C15.6666 7.49167 13.05 9.86667 9.08329 13.4583Z" fill="#1D2734"/>
</svg>
